<?xml version="1.0" encoding="utf-8"?>
<!-- Generator: Adobe Illustrator 22.0.0, SVG Export Plug-In . SVG Version: 6.00 Build 0)  -->
<svg version="1.1" id="Layer_1" xmlns="http://www.w3.org/2000/svg" xmlns:xlink="http://www.w3.org/1999/xlink" x="0px" y="0px"
	 viewBox="0 0 1200 1200" enable-background="new 0 0 1200 1200" xml:space="preserve">
<path fill="#565656" d="M1055.964,320.599H144.036c-51.85,0-94.036,42.184-94.036,94.035v370.731
	c0,51.853,42.186,94.036,94.036,94.036h911.928c51.85,0,94.036-42.183,94.036-94.036V414.634
	C1150,362.783,1107.814,320.599,1055.964,320.599z M605.13,531.569c35.459,2.635,63.511,32.308,63.511,68.431
	c0,36.123-28.052,65.797-63.511,68.431V531.569z M125.155,568.233c15.329,2.469,27.086,15.753,27.086,31.767
	s-11.757,29.298-27.086,31.767V568.233z M114.896,863.907c-31.871-11.863-54.638-42.59-54.638-78.542V414.634
	c0-35.951,22.767-66.678,54.638-78.541V863.907z M436.919,869.143H144.036c-6.494,0-12.808-0.767-18.881-2.172V642.133
	c21.005-2.545,37.344-20.452,37.344-42.133c0-21.68-16.339-39.587-37.344-42.132V333.03c6.073-1.405,12.387-2.172,18.881-2.172
	h292.883V869.143z M594.872,869.143h-49.327c2.439-26.08,23.246-46.888,49.327-49.327V869.143z M594.872,668.431
	c-35.461-2.634-63.514-32.308-63.514-68.431c0-36.123,28.053-65.797,63.514-68.431V668.431z M594.872,521.284
	C553.75,523.938,521.1,558.218,521.1,600s32.65,76.063,73.772,78.717v130.803c-31.741,2.493-57.13,27.882-59.623,59.623h-88.072
	V330.857h147.695V521.284z M605.13,869.143v-49.327c26.08,2.439,46.885,23.247,49.324,49.327H605.13z M753.434,869.143h-88.683
	c-2.493-31.741-27.881-57.13-59.621-59.623V678.717c41.122-2.654,73.77-36.935,73.77-78.717s-32.648-76.062-73.77-78.716V330.857
	h148.303V869.143z M1071.174,631.15c-14.99-2.463-26.475-15.473-26.475-31.15c0-15.676,11.485-28.687,26.475-31.15V631.15z
	 M1071.174,558.485c-20.668,2.541-36.733,20.172-36.733,41.515c0,21.343,16.066,38.974,36.733,41.515v226.218
	c-4.936,0.909-10.014,1.409-15.21,1.409H763.692V330.857h292.272c5.196,0,10.273,0.5,15.21,1.409V558.485z M1139.742,785.365
	c0,37.318-24.53,69.003-58.31,79.807V334.828c33.779,10.805,58.31,42.49,58.31,79.806V785.365z M963.35,637.114
	c-50.934,0-92.371,41.437-92.371,92.368c0,50.934,41.437,92.371,92.371,92.371c50.931,0,92.368-41.437,92.368-92.371
	C1055.718,678.551,1014.282,637.114,963.35,637.114z M963.35,811.594c-45.276,0-82.112-36.836-82.112-82.112
	s36.836-82.11,82.112-82.11s82.11,36.834,82.11,82.11S1008.626,811.594,963.35,811.594z M963.35,377.932
	c-50.934,0-92.371,41.437-92.371,92.371c0,50.933,41.437,92.369,92.371,92.369c50.931,0,92.368-41.437,92.368-92.369
	C1055.718,419.369,1014.282,377.932,963.35,377.932z M963.35,552.413c-45.276,0-82.112-36.835-82.112-82.111
	c0-45.277,36.836-82.112,82.112-82.112s82.11,36.835,82.11,82.112C1045.46,515.579,1008.626,552.413,963.35,552.413z
	 M240.141,637.114c-50.934,0-92.371,41.437-92.371,92.368c0,50.934,41.437,92.371,92.371,92.371
	c50.931,0,92.368-41.437,92.368-92.371C332.509,678.551,291.072,637.114,240.141,637.114z M240.141,811.594
	c-45.276,0-82.112-36.836-82.112-82.112s36.836-82.11,82.112-82.11s82.11,36.834,82.11,82.11S285.417,811.594,240.141,811.594z
	 M240.141,562.672c50.931,0,92.368-41.437,92.368-92.369c0-50.934-41.437-92.371-92.368-92.371
	c-50.934,0-92.371,41.437-92.371,92.371C147.77,521.235,189.207,562.672,240.141,562.672z M240.141,388.19
	c45.276,0,82.11,36.835,82.11,82.112c0,45.276-36.834,82.111-82.11,82.111s-82.112-36.835-82.112-82.111
	C158.029,425.025,194.865,388.19,240.141,388.19z M976.206,729.483c0,7.1-5.756,12.856-12.857,12.856
	c-7.1,0-12.856-5.756-12.856-12.856c0-7.101,5.756-12.857,12.856-12.857C970.45,716.627,976.206,722.383,976.206,729.483z
	 M976.206,470.302c0,7.101-5.756,12.856-12.857,12.856c-7.1,0-12.856-5.756-12.856-12.856c0-7.101,5.756-12.857,12.856-12.857
	C970.45,457.446,976.206,463.202,976.206,470.302z M703.312,729.483c0-7.101,5.756-12.857,12.857-12.857
	c7.1,0,12.856,5.756,12.856,12.857c0,7.1-5.756,12.856-12.856,12.856C709.067,742.34,703.312,736.584,703.312,729.483z
	 M703.312,470.302c0-7.101,5.756-12.857,12.857-12.857c7.1,0,12.856,5.756,12.856,12.857c0,7.101-5.756,12.856-12.856,12.856
	C709.067,483.159,703.312,477.403,703.312,470.302z M462.1,729.483c0-7.101,5.756-12.857,12.857-12.857
	c7.1,0,12.856,5.756,12.856,12.857c0,7.1-5.756,12.856-12.856,12.856C467.856,742.34,462.1,736.584,462.1,729.483z M462.1,470.302
	c0-7.101,5.756-12.857,12.857-12.857c7.1,0,12.856,5.756,12.856,12.857c0,7.101-5.756,12.856-12.856,12.856
	C467.856,483.159,462.1,477.403,462.1,470.302z M249.049,729.483c0,7.1-5.756,12.856-12.857,12.856
	c-7.1,0-12.856-5.756-12.856-12.856c0-7.101,5.756-12.857,12.856-12.857C243.293,716.627,249.049,722.383,249.049,729.483z
	 M223.336,470.302c0-7.101,5.756-12.857,12.856-12.857c7.101,0,12.857,5.756,12.857,12.857c0,7.101-5.756,12.856-12.857,12.856
	C229.092,483.159,223.336,477.403,223.336,470.302z"/>
</svg>
